# xmcd
#
# Track frame offsets: 
#        150
#        17181
#        39681
#        53483
#        73830
#        88706
#        105313
#        124014
#        139881
#        158470
#        171968
#        187630
#
# Disc length: 2717 seconds
#
# Revision: 0
# Processed by: cddbd v1.5.2PL0 Copyright (c) Steve Scherf et al.
# Submitted via: ExactAudioCopy v0.95b4
#
DISCID=940a9b0c
DTITLE=Ricky Gene Hall and the Goods - Bam!
DYEAR=2008
DGENRE=Blues
TTITLE0=Way I Feel
TTITLE1=Noth'n at all
TTITLE2=Bam
TTITLE3=Real fine woman
TTITLE4=Amos Moses
TTITLE5=Just my luck
TTITLE6=This old guitar
TTITLE7=Read me my rights
TTITLE8=Revelation Radio
TTITLE9=Bad is bad
TTITLE10=Postman
TTITLE11=Blues leave me too
EXTD=
EXTT0=
EXTT1=
EXTT2=
EXTT3=
EXTT4=
EXTT5=
EXTT6=
EXTT7=
EXTT8=
EXTT9=
EXTT10=
EXTT11=
PLAYORDER=
